<svg xmlns="http://www.w3.org/2000/svg" height="48" width="48" fill="none"><g transform="translate(-8 -4)" filter="url(#filter0_d)"><circle r="24" cy="28" cx="32" fill="#fff"/></g><path d="M24.001 12C17.371 11.997 12 17.365 12 23.99c0 5.24 3.36 9.693 8.038 11.329.63.158.534-.29.534-.595v-2.078c-3.639.426-3.786-1.982-4.03-2.384-.493-.842-1.66-1.056-1.311-1.459.828-.426 1.673.108 2.652 1.553.708 1.048 2.088.871 2.788.697.153-.63.48-1.193.93-1.63-3.77-.676-5.34-2.976-5.34-5.711 0-1.328.437-2.547 1.295-3.532-.547-1.622.05-3.01.131-3.217 1.558-.14 3.177 1.115 3.303 1.215.885-.239 1.896-.365 3.027-.365 1.137 0 2.15.131 3.044.373.303-.23 1.804-1.309 3.252-1.177.078.206.662 1.563.147 3.163.87.987 1.312 2.218 1.312 3.548 0 2.74-1.582 5.043-5.363 5.708a3.42 3.42 0 011.022 2.44v3.017c.021.24 0 .48.402.48C32.58 33.763 36 29.277 36 23.992 36 17.365 30.627 12 24.001 12z" fill="#4da8ff"/><defs id="defs23"><filter filterUnits="userSpaceOnUse" height="64" width="64" y="0" x="0" id="filter0_d" color-interpolation-filters="sRGB"><feFlood id="feFlood8" result="BackgroundImageFix" flood-opacity="0"/><feColorMatrix id="feColorMatrix10" values="0 0 0 0 0 0 0 0 0 0 0 0 0 0 0 0 0 0 127 0" type="matrix" in="SourceAlpha"/><feOffset id="feOffset12" dy="4"/><feGaussianBlur id="feGaussianBlur14" stdDeviation="4"/><feColorMatrix id="feColorMatrix16" values="0 0 0 0 0.0611066 0 0 0 0 0.437703 0 0 0 0 0.793181 0 0 0 0.15 0" type="matrix"/><feBlend id="feBlend18" result="effect1_dropShadow" in2="BackgroundImageFix" mode="normal"/><feBlend id="feBlend20" result="shape" in2="effect1_dropShadow" in="SourceGraphic" mode="normal"/></filter></defs></svg>