<svg xmlns="http://www.w3.org/2000/svg" height="48" width="48" fill="none">
  <g transform="translate(-8 -4)" filter="url(#filter0_d)">
    <circle r="24" cy="28" cx="32" fill="#fff"/>
  </g>
  <path d="M23.997 19.998A4.01 4.01 0 0019.995 24a4.01 4.01 0 004.002 4.002A4.01 4.01 0 0027.999 24a4.01 4.01 0 00-4.002-4.002zM35.999 24c0-1.657.015-3.3-.078-4.953-.093-1.922-.531-3.627-1.936-5.032-1.408-1.408-3.11-1.843-5.032-1.936C27.296 11.986 25.654 12 24 12c-1.657 0-3.3-.015-4.953.078-1.922.093-3.627.531-5.032 1.936-1.408 1.408-1.843 3.11-1.936 5.032C11.986 20.704 12 22.346 12 24c0 1.654-.015 3.3.078 4.953.093 1.922.531 3.627 1.936 5.032 1.408 1.408 3.11 1.843 5.032 1.936 1.657.093 3.299.078 4.953.078 1.657 0 3.3.015 4.953-.078 1.922-.093 3.627-.531 5.032-1.936 1.408-1.408 1.843-3.11 1.936-5.032C36.017 27.3 36 25.657 36 24zm-12.002 6.157A6.149 6.149 0 0117.84 24a6.149 6.149 0 016.157-6.157A6.149 6.149 0 0130.154 24a6.149 6.149 0 01-6.157 6.157zm6.41-11.128a1.436 1.436 0 01-1.439-1.438c0-.796.643-1.438 1.438-1.438a1.436 1.436 0 011.33 1.988 1.438 1.438 0 01-1.33.888z" fill="#4da8ff"/>
  <defs id="defs23">
    <filter filterUnits="userSpaceOnUse" height="64" width="64" y="0" x="0" id="filter0_d" color-interpolation-filters="sRGB">
      <feFlood id="feFlood8" result="BackgroundImageFix" flood-opacity="0"/>
      <feColorMatrix id="feColorMatrix10" values="0 0 0 0 0 0 0 0 0 0 0 0 0 0 0 0 0 0 127 0" type="matrix" in="SourceAlpha"/>
      <feOffset id="feOffset12" dy="4"/>
      <feGaussianBlur id="feGaussianBlur14" stdDeviation="4"/>
      <feColorMatrix id="feColorMatrix16" values="0 0 0 0 0.0611066 0 0 0 0 0.437703 0 0 0 0 0.793181 0 0 0 0.15 0" type="matrix"/>
      <feBlend id="feBlend18" result="effect1_dropShadow" in2="BackgroundImageFix" mode="normal"/>
      <feBlend id="feBlend20" result="shape" in2="effect1_dropShadow" in="SourceGraphic" mode="normal"/>
    </filter>
  </defs>
</svg>
